{"glyphs":{"0":{"ha":817,"x_min":57,"x_max":757,"o":"m 757 150 l 757 828 l 757 151 l 757 150 m 521 232 l 521 742 l 467 781 l 347 781 l 293 742 l 293 232 l 349 199 l 465 199 l 521 232 m 757 828 l 757 151 l 522 1 l 293 1 l 292 1 l 57 150 l 57 828 l 293 976 l 521 976 l 757 828 z "},"1":{"ha":343,"x_min":54,"x_max":290,"o":"m 54 978 l 290 978 l 290 1 l 54 1 l 54 978 z "},"2":{"ha":788,"x_min":15,"x_max":744,"o":"m 461 199 l 744 199 l 744 1 l 15 1 l 507 635 l 507 742 l 453 781 l 333 781 l 279 742 l 279 621 l 43 586 l 43 828 l 279 978 l 507 978 l 508 978 l 743 828 l 743 572 l 461 199 z "},"3":{"ha":792,"x_min":43,"x_max":743,"o":"m 279 978 l 508 978 l 743 828 l 743 572 l 657 488 l 743 404 l 743 151 l 508 1 l 278 1 l 43 151 l 43 310 l 279 310 l 279 232 l 335 197 l 451 197 l 507 232 l 507 393 l 333 393 l 333 590 l 507 590 l 507 742 l 453 781 l 333 781 l 279 742 l 279 663 l 43 663 l 43 828 l 279 978 z "},"4":{"ha":756,"x_min":1,"x_max":701,"o":"m 465 589 l 701 589 l 701 1 l 465 1 l 465 283 l 1 283 l 233 978 l 469 978 l 303 481 l 465 481 l 465 589 z "},"5":{"ha":788,"x_min":42,"x_max":743,"o":"m 279 682 l 589 682 l 743 557 l 743 151 l 508 1 l 507 1 l 507 3 l 279 3 l 279 1 l 43 151 l 43 344 l 279 344 l 278 232 l 333 197 l 450 197 l 506 232 l 506 426 l 451 475 l 43 474 l 42 978 l 742 978 l 742 782 l 278 782 l 279 682 z "},"6":{"ha":786,"x_min":42,"x_max":743,"o":"m 278 1 l 42 151 l 43 829 l 279 978 l 508 978 l 743 829 l 743 686 l 507 686 l 507 747 l 451 781 l 335 781 l 279 747 l 279 542 l 507 542 l 742 393 l 742 151 l 506 3 l 278 1 m 333 393 l 278 358 l 278 238 l 332 199 l 451 199 l 506 238 l 506 358 l 450 393 l 333 393 z "},"7":{"ha":756,"x_min":25,"x_max":729,"o":"m 29 976 l 729 976 l 729 781 l 261 1 l 25 1 l 493 781 l 29 781 l 29 976 z "},"8":{"ha":786,"x_min":42,"x_max":742,"o":"m 451 589 l 506 628 l 506 747 l 450 782 l 333 782 l 278 747 l 278 628 l 332 589 l 451 589 m 450 393 l 333 393 l 278 358 l 278 238 l 332 199 l 451 199 l 506 238 l 506 358 l 450 393 m 278 3 l 278 1 l 276 1 l 42 151 l 42 393 l 196 490 l 42 589 l 42 828 l 276 978 l 507 978 l 742 828 l 742 589 l 586 490 l 742 393 l 742 151 l 506 1 l 506 3 l 278 3 z "},"9":{"ha":786,"x_min":42,"x_max":743,"o":"m 507 978 l 743 828 l 742 150 l 506 1 l 276 1 l 42 150 l 42 293 l 278 293 l 278 232 l 333 199 l 450 199 l 506 232 l 506 438 l 278 438 l 43 586 l 43 828 l 279 976 l 507 978 m 451 586 l 507 621 l 507 742 l 453 781 l 333 781 l 279 742 l 279 621 l 335 586 l 451 586 z "},"D":{"ha":794,"x_min":56,"x_max":756,"o":"m 519 232 l 519 742 l 465 781 l 292 781 l 292 199 l 464 199 l 519 232 m 519 978 l 756 828 l 756 151 l 521 1 l 521 1 l 519 1 l 56 1 l 56 978 l 519 976 l 519 978 z "},"E":{"ha":790,"x_min":44,"x_max":744,"o":"m 744 976 l 744 781 l 281 781 l 281 586 l 513 586 l 513 389 l 281 389 l 281 199 l 744 199 l 744 1 l 44 1 l 44 978 l 744 976 z "},"F":{"ha":790,"x_min":44,"x_max":744,"o":"m 744 976 l 744 781 l 281 781 l 281 586 l 513 586 l 513 389 l 281 389 l 281 1 l 44 1 l 44 978 l 744 976 z "},"H":{"ha":811,"x_min":57,"x_max":757,"o":"m 521 978 l 757 978 l 757 1 l 521 1 l 521 389 l 293 389 l 293 1 l 57 1 l 57 978 l 293 978 l 293 586 l 521 586 l 521 978 z "},"I":{"ha":343,"x_min":54,"x_max":290,"o":"m 54 978 l 290 978 l 290 1 l 54 1 l 54 978 z "}," ":{"ha":556,"x_min":0,"x_max":0,"o":""},"`":{"ha":1157,"x_min":368,"x_max":738,"o":"m 738 1119 l 590 972 l 368 1194 l 515 1342 l 738 1119 z "},"˚":{"ha":463,"x_min":83,"x_max":381,"o":"m 231 1196 q 289 1184 261 1196 q 337 1152 317 1172 q 369 1104 357 1132 q 381 1046 381 1076 q 369 987 381 1014 q 337 940 357 960 q 289 908 317 919 q 231 896 261 896 q 173 908 200 896 q 126 940 146 919 q 95 987 107 960 q 83 1046 83 1014 q 94 1104 83 1076 q 126 1152 106 1132 q 172 1184 146 1172 q 231 1196 199 1196 m 232 988 q 273 1004 256 988 q 290 1046 290 1021 q 274 1088 290 1071 q 232 1104 257 1104 q 191 1087 208 1104 q 174 1047 174 1069 q 191 1004 174 1021 q 232 988 208 988 z "}," ":{"ha":556,"x_min":0,"x_max":0,"o":""},"L":{"ha":729,"x_min":53,"x_max":708,"o":"m 53 978 l 289 978 l 289 199 l 708 199 l 708 1 l 53 1 l 53 978 z "},"N":{"ha":785,"x_min":43,"x_max":743,"o":"m 507 978 l 743 978 l 743 1 l 507 1 l 507 1 l 279 493 l 279 1 l 43 1 l 43 978 l 279 978 l 279 978 l 507 493 l 507 978 z "},"C":{"ha":788,"x_min":43,"x_max":743,"o":"m 507 978 l 743 828 l 743 588 l 507 588 l 507 742 l 453 781 l 333 781 l 279 742 l 279 232 l 335 199 l 451 199 l 507 232 l 507 390 l 743 390 l 743 150 l 508 1 l 508 1 l 507 1 l 279 1 l 278 1 l 278 1 l 43 150 l 43 828 l 278 978 l 507 978 l 507 978 z "},"Y":{"ha":629,"x_min":-40,"x_max":660,"o":"m 424 978 l 660 978 l 428 285 l 428 1 l 192 1 l 192 288 l -40 978 l 196 978 l 310 638 l 424 978 z "},"W":{"ha":804,"x_min":-15,"x_max":815,"o":"m 815 978 l 658 1 l 496 1 l 403 375 l 303 1 l 140 1 l -15 978 l 221 978 l 285 592 l 333 978 l 467 978 l 517 590 l 579 978 l 815 978 z "},"X":{"ha":661,"x_min":-21,"x_max":681,"o":"m -19 978 l 217 978 l 331 738 l 444 978 l 681 978 l 449 490 l 681 1 l 444 1 l 331 242 l 215 1 l -21 1 l 213 490 l -19 978 z "},"V":{"ha":658,"x_min":-26,"x_max":674,"o":"m -26 978 l 210 978 l 324 497 l 438 978 l 674 978 l 442 1 l 206 1 l -26 978 z "},"M":{"ha":804,"x_min":-15,"x_max":815,"o":"m 815 1 l 579 1 l 517 389 l 467 1 l 333 1 l 285 388 l 221 1 l -15 1 l 140 978 l 303 978 l 403 604 l 496 978 l 658 978 l 815 1 z "},"T":{"ha":756,"x_min":29,"x_max":729,"o":"m 29 976 l 729 976 l 729 781 l 497 781 l 497 1 l 261 1 l 261 781 l 29 781 l 29 976 z "},"J":{"ha":772,"x_min":22,"x_max":722,"o":"m 486 978 l 722 978 l 722 150 l 488 1 l 258 1 l 257 1 l 22 150 l 22 390 l 258 390 l 258 232 l 314 199 l 431 199 l 486 232 l 486 978 z "},"Ø":{"ha":817,"x_min":57,"x_max":757,"o":"m 428 781 l 347 781 l 293 742 l 293 493 l 428 781 m 521 232 l 521 493 l 383 199 l 465 199 l 521 232 m 757 150 l 757 828 l 757 151 l 757 150 m 521 978 l 757 828 l 757 151 l 522 1 l 522 1 l 521 1 l 293 1 l 292 1 l 292 1 l 57 150 l 57 828 l 292 978 l 521 978 z "},"U":{"ha":793,"x_min":43,"x_max":743,"o":"m 279 232 l 335 199 l 451 199 l 507 232 l 507 978 l 743 978 l 743 150 l 508 1 l 278 1 l 43 150 l 43 978 l 279 978 l 279 232 z "},"A":{"ha":644,"x_min":-32,"x_max":668,"o":"m 340 388 l 318 481 l 296 388 l 340 388 m -32 1 l 200 978 l 436 978 l 668 1 l 432 1 l 386 192 l 249 192 l 204 1 l -32 1 z "},"B":{"ha":800,"x_min":46,"x_max":746,"o":"m 282 390 l 282 197 l 454 197 l 510 232 l 510 351 l 456 390 l 282 390 m 282 781 l 282 586 l 454 586 l 510 621 l 510 742 l 456 781 l 282 781 m 46 978 l 510 978 l 746 828 l 746 586 l 590 489 l 746 390 l 746 151 l 511 1 l 511 1 l 510 1 l 46 1 l 46 978 z "},"Z":{"ha":785,"x_min":11,"x_max":768,"o":"m 40 976 l 768 978 l 342 199 l 740 199 l 740 1 l 11 1 l 439 781 l 40 781 l 40 976 z "},"P":{"ha":782,"x_min":56,"x_max":756,"o":"m 292 781 l 292 586 l 464 586 l 519 621 l 519 742 l 465 781 l 292 781 m 519 390 l 292 390 l 292 1 l 56 1 l 56 978 l 519 978 l 756 828 l 756 553 l 519 390 z "},"a":{"ha":644,"x_min":-32,"x_max":668,"o":"m 340 388 l 318 481 l 296 388 l 340 388 m -32 1 l 200 978 l 200 978 l 436 978 l 436 978 l 668 1 l 432 1 l 386 192 l 249 192 l 204 1 l -32 1 z "},"d":{"ha":794,"x_min":56,"x_max":756,"o":"m 519 232 l 519 742 l 465 781 l 292 781 l 292 199 l 464 199 l 519 232 m 519 978 l 756 828 l 756 151 l 521 1 l 521 1 l 519 1 l 56 1 l 56 978 l 519 976 l 519 978 z "},"e":{"ha":790,"x_min":44,"x_max":744,"o":"m 744 976 l 744 781 l 281 781 l 281 586 l 513 586 l 513 389 l 281 389 l 281 199 l 744 199 l 744 1 l 44 1 l 44 978 l 744 976 z "},"f":{"ha":790,"x_min":44,"x_max":744,"o":"m 744 976 l 744 781 l 281 781 l 281 586 l 513 586 l 513 389 l 281 389 l 281 1 l 44 1 l 44 978 l 744 976 z "},"h":{"ha":811,"x_min":57,"x_max":757,"o":"m 521 978 l 757 978 l 757 1 l 521 1 l 521 389 l 293 389 l 293 1 l 57 1 l 57 978 l 293 978 l 293 586 l 521 586 l 521 978 z "},"i":{"ha":343,"x_min":54,"x_max":290,"o":"m 54 978 l 290 978 l 290 1 l 54 1 l 54 978 z "},"j":{"ha":772,"x_min":22,"x_max":722,"o":"m 486 978 l 722 978 l 722 150 l 488 1 l 488 1 l 486 1 l 258 1 l 257 1 l 257 1 l 22 150 l 22 390 l 258 390 l 258 232 l 314 199 l 431 199 l 486 232 l 486 978 z "},"l":{"ha":729,"x_min":53,"x_max":708,"o":"m 53 978 l 289 978 l 289 199 l 708 199 l 708 1 l 53 1 l 53 978 z "},"m":{"ha":804,"x_min":-15,"x_max":815,"o":"m 815 1 l 579 1 l 517 389 l 467 1 l 333 1 l 285 388 l 221 1 l -15 1 l 140 978 l 303 978 l 403 604 l 496 978 l 658 978 l 815 1 z "},"n":{"ha":785,"x_min":43,"x_max":743,"o":"m 507 978 l 743 978 l 743 1 l 507 1 l 507 1 l 279 493 l 279 1 l 43 1 l 43 978 l 279 978 l 279 978 l 507 493 l 507 978 z "},"p":{"ha":782,"x_min":56,"x_max":756,"o":"m 292 781 l 292 586 l 464 586 l 519 621 l 519 742 l 465 781 l 292 781 m 519 390 l 292 390 l 292 1 l 56 1 l 56 978 l 519 978 l 756 828 l 756 553 l 519 390 z "},"t":{"ha":756,"x_min":29,"x_max":729,"o":"m 29 976 l 729 976 l 729 781 l 497 781 l 497 1 l 261 1 l 261 781 l 29 781 l 29 976 z "},"u":{"ha":793,"x_min":43,"x_max":743,"o":"m 279 232 l 335 199 l 451 199 l 507 232 l 507 978 l 743 978 l 743 150 l 508 1 l 278 1 l 43 150 l 43 978 l 279 978 l 279 232 z "},"v":{"ha":658,"x_min":-26,"x_max":674,"o":"m -26 978 l 210 978 l 324 497 l 438 978 l 674 978 l 442 1 l 442 1 l 206 1 l 206 1 l -26 978 z "},"w":{"ha":804,"x_min":-15,"x_max":815,"o":"m 815 978 l 658 1 l 496 1 l 403 375 l 303 1 l 140 1 l -15 978 l 221 978 l 285 592 l 333 978 l 467 978 l 517 590 l 579 978 l 815 978 z "},"x":{"ha":661,"x_min":-21,"x_max":681,"o":"m -19 978 l 217 978 l 331 738 l 444 978 l 681 978 l 449 490 l 681 1 l 444 1 l 331 242 l 215 1 l -21 1 l 213 490 l -19 978 z "},"y":{"ha":629,"x_min":-40,"x_max":660,"o":"m 424 978 l 660 978 l 428 285 l 428 1 l 192 1 l 192 288 l -40 978 l 196 978 l 310 638 l 424 978 z "},"z":{"ha":785,"x_min":11,"x_max":768,"o":"m 40 976 l 768 978 l 342 199 l 740 199 l 740 1 l 11 1 l 439 781 l 40 781 l 40 976 z "},"r":{"ha":785,"x_min":54,"x_max":793,"o":"m 367 390 l 290 390 l 290 1 l 54 1 l 54 978 l 518 978 l 754 828 l 754 553 l 585 438 l 793 1 l 557 1 l 367 390 m 290 781 l 290 586 l 463 586 l 518 621 l 518 742 l 464 781 l 290 781 z "},"Q":{"ha":831,"x_min":57,"x_max":828,"o":"m 521 439 l 521 742 l 467 781 l 347 781 l 293 742 l 293 232 l 349 199 l 440 199 l 328 292 l 479 474 l 521 439 m 757 240 l 757 828 l 757 240 m 757 828 l 757 240 l 828 181 l 675 0 l 608 57 l 522 1 l 522 1 l 521 1 l 293 1 l 292 1 l 292 1 l 57 150 l 57 828 l 292 978 l 521 978 l 757 828 z "},"S":{"ha":796,"x_min":44,"x_max":744,"o":"m 281 976 l 508 976 l 508 978 l 744 828 l 744 586 l 508 621 l 508 742 l 454 781 l 335 781 l 281 742 l 281 635 l 744 404 l 744 151 l 510 1 l 279 1 l 44 151 l 44 390 l 281 351 l 281 232 l 336 197 l 453 197 l 508 232 l 508 338 l 44 572 l 44 828 l 279 978 l 281 978 l 281 976 z "},"s":{"ha":796,"x_min":44,"x_max":744,"o":"m 281 976 l 508 976 l 508 978 l 744 828 l 744 586 l 508 621 l 508 742 l 454 781 l 335 781 l 281 742 l 281 635 l 744 404 l 744 151 l 510 1 l 279 1 l 44 151 l 44 390 l 281 351 l 281 232 l 336 197 l 453 197 l 508 232 l 508 338 l 44 572 l 44 828 l 279 978 l 281 978 l 281 976 z "},"G":{"ha":779,"x_min":43,"x_max":743,"o":"m 743 826 l 743 740 l 507 740 l 453 779 l 333 779 l 279 740 l 279 231 l 335 197 l 451 197 l 507 231 l 507 358 l 394 358 l 394 556 l 742 556 l 742 403 l 743 403 l 743 149 l 508 0 l 278 0 l 43 149 l 43 832 l 279 975 l 507 975 l 743 826 z "},"g":{"ha":779,"x_min":43,"x_max":743,"o":"m 743 826 l 743 740 l 507 740 l 453 779 l 333 779 l 279 740 l 279 231 l 335 197 l 451 197 l 507 231 l 507 358 l 394 358 l 394 556 l 742 556 l 742 403 l 743 403 l 743 149 l 508 0 l 278 0 l 43 149 l 43 832 l 279 975 l 507 975 l 743 826 z "},".":{"ha":343,"x_min":54,"x_max":290,"o":"m 54 199 l 290 199 l 290 0 l 54 0 l 54 199 z "},":":{"ha":343,"x_min":54,"x_max":290,"o":"m 54 588 l 290 588 l 290 389 l 54 389 l 54 588 m 54 199 l 290 199 l 290 0 l 54 0 l 54 199 z "},";":{"ha":343,"x_min":53,"x_max":290,"o":"m 54 588 l 290 588 l 290 389 l 54 389 l 54 588 m 53 200 l 289 200 l 289 1 l 174 -190 l 174 1 l 53 1 l 53 200 z "},",":{"ha":343,"x_min":53,"x_max":289,"o":"m 53 200 l 289 200 l 289 1 l 174 -190 l 174 1 l 53 1 l 53 200 z "},"-":{"ha":582,"x_min":50,"x_max":525,"o":"m 50 586 l 525 586 l 525 389 l 50 389 l 50 586 z "},"?":{"ha":788,"x_min":43,"x_max":743,"o":"m 276 293 l 507 635 l 507 742 l 453 781 l 333 781 l 279 742 l 279 621 l 43 586 l 43 828 l 279 978 l 279 976 l 507 976 l 507 978 l 508 978 l 743 828 l 743 572 l 513 292 l 276 293 m 276 199 l 513 199 l 513 0 l 276 0 l 276 199 z "},"+":{"ha":582,"x_min":50,"x_max":525,"o":"m 189 250 l 189 389 l 50 389 l 50 586 l 189 586 l 189 725 l 386 725 l 386 586 l 525 586 l 525 389 l 386 389 l 386 250 l 189 250 z "},"'":{"ha":343,"x_min":54,"x_max":290,"o":"m 54 978 l 290 978 l 290 649 l 54 649 l 54 978 z "},"!":{"ha":343,"x_min":54,"x_max":290,"o":"m 54 978 l 290 978 l 290 292 l 54 292 l 54 978 m 54 199 l 290 199 l 290 0 l 54 0 l 54 199 z "},"/":{"ha":753,"x_min":-21,"x_max":779,"o":"m 543 978 l 779 978 l 215 1 l -21 1 l 543 978 z "},"¸":{"ha":343,"x_min":53,"x_max":289,"o":"m 53 103 l 289 103 l 289 -96 l 174 -287 l 174 -96 l 53 -96 l 53 103 z "},"Ç":{"ha":788,"x_min":43,"x_max":743,"o":"m 743 828 l 743 588 l 507 588 l 507 742 l 453 781 l 333 781 l 279 742 l 279 232 l 335 199 l 451 199 l 507 232 l 507 390 l 743 390 l 743 150 l 508 1 l 508 1 l 507 1 l 279 1 l 278 1 l 278 1 l 43 150 l 43 828 l 278 978 l 507 978 l 743 828 m 275 103 l 511 103 l 511 -96 l 396 -287 l 396 -96 l 275 -96 l 275 103 z "},"ç":{"ha":788,"x_min":43,"x_max":743,"o":"m 743 828 l 743 588 l 507 588 l 507 742 l 453 781 l 333 781 l 279 742 l 279 232 l 335 199 l 451 199 l 507 232 l 507 390 l 743 390 l 743 150 l 508 1 l 508 1 l 507 1 l 279 1 l 278 1 l 278 1 l 43 150 l 43 828 l 278 978 l 507 978 l 743 828 m 275 103 l 511 103 l 511 -96 l 396 -287 l 396 -96 l 275 -96 l 275 103 z "},"´":{"ha":1157,"x_min":368,"x_max":738,"o":"m 590 1342 l 738 1194 l 515 972 l 368 1119 l 590 1342 z "},"À":{"ha":644,"x_min":-32,"x_max":668,"o":"m 340 388 l 318 481 l 296 388 l 340 388 m -32 1 l 200 978 l 436 978 l 668 1 l 432 1 l 386 192 l 249 192 l 204 1 l -32 1 m 508 1119 l 361 972 l 139 1194 l 286 1342 l 508 1119 z "},"Á":{"ha":644,"x_min":-32,"x_max":668,"o":"m 340 388 l 318 481 l 296 388 l 340 388 m -32 1 l 200 978 l 436 978 l 668 1 l 432 1 l 386 192 l 249 192 l 204 1 l -32 1 m 361 1342 l 508 1194 l 286 972 l 139 1119 l 361 1342 z "},"È":{"ha":790,"x_min":44,"x_max":744,"o":"m 744 976 l 744 781 l 281 781 l 281 586 l 513 586 l 513 389 l 281 389 l 281 199 l 744 199 l 744 1 l 44 1 l 44 978 l 744 976 m 582 1119 l 435 972 l 213 1194 l 360 1342 l 582 1119 z "},"É":{"ha":790,"x_min":44,"x_max":744,"o":"m 744 976 l 744 781 l 281 781 l 281 586 l 513 586 l 513 389 l 281 389 l 281 199 l 744 199 l 744 1 l 44 1 l 44 978 l 744 976 m 435 1342 l 582 1194 l 360 972 l 213 1119 l 435 1342 z "},"Ì":{"ha":343,"x_min":-11,"x_max":358,"o":"m 54 978 l 290 978 l 290 1 l 54 1 l 54 978 m 358 1119 l 211 972 l -11 1194 l 136 1342 l 358 1119 z "},"Í":{"ha":343,"x_min":-11,"x_max":358,"o":"m 54 978 l 290 978 l 290 1 l 54 1 l 54 978 m 211 1342 l 358 1194 l 136 972 l -11 1119 l 211 1342 z "},"Ù":{"ha":793,"x_min":43,"x_max":743,"o":"m 279 232 l 335 199 l 451 199 l 507 232 l 507 978 l 743 978 l 743 150 l 508 1 l 278 1 l 43 150 l 43 978 l 279 978 l 279 232 m 583 1119 l 436 972 l 214 1194 l 361 1342 l 583 1119 z "},"Ú":{"ha":793,"x_min":43,"x_max":743,"o":"m 279 232 l 335 199 l 451 199 l 507 232 l 507 978 l 743 978 l 743 150 l 508 1 l 278 1 l 43 150 l 43 978 l 279 978 l 279 232 m 436 1342 l 583 1194 l 361 972 l 214 1119 l 436 1342 z "},"Ý":{"ha":629,"x_min":-40,"x_max":660,"o":"m 424 978 l 660 978 l 428 285 l 428 1 l 192 1 l 192 288 l -40 978 l 196 978 l 310 638 l 424 978 m 354 1342 l 501 1194 l 279 972 l 132 1119 l 354 1342 z "},"à":{"ha":644,"x_min":-32,"x_max":668,"o":"m 340 388 l 318 481 l 296 388 l 340 388 m -32 1 l 200 978 l 436 978 l 668 1 l 432 1 l 386 192 l 249 192 l 204 1 l -32 1 m 508 1119 l 361 972 l 139 1194 l 286 1342 l 508 1119 z "},"á":{"ha":644,"x_min":-32,"x_max":668,"o":"m 340 388 l 318 481 l 296 388 l 340 388 m -32 1 l 200 978 l 436 978 l 668 1 l 432 1 l 386 192 l 249 192 l 204 1 l -32 1 m 361 1342 l 508 1194 l 286 972 l 139 1119 l 361 1342 z "},"è":{"ha":790,"x_min":44,"x_max":744,"o":"m 744 976 l 744 781 l 281 781 l 281 586 l 513 586 l 513 389 l 281 389 l 281 199 l 744 199 l 744 1 l 44 1 l 44 978 l 744 976 m 582 1119 l 435 972 l 213 1194 l 360 1342 l 582 1119 z "},"é":{"ha":790,"x_min":44,"x_max":744,"o":"m 744 976 l 744 781 l 281 781 l 281 586 l 513 586 l 513 389 l 281 389 l 281 199 l 744 199 l 744 1 l 44 1 l 44 978 l 744 976 m 435 1342 l 582 1194 l 360 972 l 213 1119 l 435 1342 z "},"ì":{"ha":343,"x_min":-11,"x_max":358,"o":"m 54 978 l 290 978 l 290 1 l 54 1 l 54 978 m 358 1119 l 211 972 l -11 1194 l 136 1342 l 358 1119 z "},"í":{"ha":343,"x_min":-11,"x_max":358,"o":"m 54 978 l 290 978 l 290 1 l 54 1 l 54 978 m 211 1342 l 358 1194 l 136 972 l -11 1119 l 211 1342 z "},"ò":{"ha":817,"x_min":57,"x_max":757,"o":"m 757 150 l 757 828 l 757 151 l 757 150 m 521 232 l 521 742 l 467 781 l 347 781 l 293 742 l 293 232 l 349 199 l 465 199 l 521 232 m 757 828 l 757 151 l 522 1 l 293 1 l 292 1 l 57 150 l 57 828 l 293 976 l 521 976 l 757 828 m 593 1119 l 446 972 l 224 1194 l 371 1342 l 593 1119 z "},"ó":{"ha":817,"x_min":57,"x_max":757,"o":"m 757 150 l 757 828 l 757 151 l 757 150 m 521 232 l 521 742 l 467 781 l 347 781 l 293 742 l 293 232 l 349 199 l 465 199 l 521 232 m 757 828 l 757 151 l 522 1 l 293 1 l 292 1 l 57 150 l 57 828 l 293 976 l 521 976 l 757 828 m 446 1342 l 593 1194 l 371 972 l 224 1119 l 446 1342 z "},"ù":{"ha":793,"x_min":43,"x_max":743,"o":"m 279 232 l 335 199 l 451 199 l 507 232 l 507 978 l 743 978 l 743 150 l 508 1 l 278 1 l 43 150 l 43 978 l 279 978 l 279 232 m 583 1119 l 436 972 l 214 1194 l 361 1342 l 583 1119 z "},"ú":{"ha":793,"x_min":43,"x_max":743,"o":"m 279 232 l 335 199 l 451 199 l 507 232 l 507 978 l 743 978 l 743 150 l 508 1 l 278 1 l 43 150 l 43 978 l 279 978 l 279 232 m 436 1342 l 583 1194 l 361 972 l 214 1119 l 436 1342 z "},"ý":{"ha":629,"x_min":-40,"x_max":660,"o":"m 424 978 l 660 978 l 428 285 l 428 1 l 192 1 l 192 288 l -40 978 l 196 978 l 310 638 l 424 978 m 354 1342 l 501 1194 l 279 972 l 132 1119 l 354 1342 z "},"K":{"ha":790,"x_min":56,"x_max":792,"o":"m 556 976 l 792 976 l 546 489 l 792 0 l 556 0 l 292 497 l 292 0 l 56 0 l 56 976 l 292 976 l 292 497 l 556 976 z "},"k":{"ha":790,"x_min":56,"x_max":792,"o":"m 556 976 l 792 976 l 546 489 l 792 0 l 556 0 l 292 497 l 292 0 l 56 0 l 56 976 l 292 976 l 292 497 l 556 976 z "},"¨":{"ha":1157,"x_min":281,"x_max":906,"o":"m 517 1024 l 281 1024 l 281 1222 l 517 1222 l 517 1024 m 906 1024 l 669 1024 l 669 1222 l 906 1222 l 906 1024 z "},"Ä":{"ha":644,"x_min":-32,"x_max":668,"o":"m 340 388 l 318 481 l 296 388 l 340 388 m -32 1 l 200 978 l 436 978 l 668 1 l 432 1 l 386 192 l 249 192 l 204 1 l -32 1 m 247 1024 l 11 1024 l 11 1222 l 247 1222 l 247 1024 m 636 1024 l 400 1024 l 400 1222 l 636 1222 l 636 1024 z "},"Ï":{"ha":343,"x_min":-140,"x_max":485,"o":"m 54 978 l 290 978 l 290 1 l 54 1 l 54 978 m 96 1024 l -140 1024 l -140 1222 l 96 1222 l 96 1024 m 485 1024 l 249 1024 l 249 1222 l 485 1222 l 485 1024 z "},"Ë":{"ha":790,"x_min":44,"x_max":744,"o":"m 744 976 l 744 781 l 281 781 l 281 586 l 513 586 l 513 389 l 281 389 l 281 199 l 744 199 l 744 1 l 44 1 l 44 978 l 744 976 m 319 1024 l 83 1024 l 83 1222 l 319 1222 l 319 1024 m 708 1024 l 472 1024 l 472 1222 l 708 1222 l 708 1024 z "},"Ü":{"ha":793,"x_min":43,"x_max":743,"o":"m 279 232 l 335 199 l 451 199 l 507 232 l 507 978 l 743 978 l 743 150 l 508 1 l 278 1 l 43 150 l 43 978 l 279 978 l 279 232 m 321 1024 l 85 1024 l 85 1222 l 321 1222 l 321 1024 m 710 1024 l 474 1024 l 474 1222 l 710 1222 l 710 1024 z "},"Ÿ":{"ha":629,"x_min":-40,"x_max":660,"o":"m 424 978 l 660 978 l 428 285 l 428 1 l 192 1 l 192 288 l -40 978 l 196 978 l 310 638 l 424 978 m 240 1024 l 4 1024 l 4 1222 l 240 1222 l 240 1024 m 629 1024 l 393 1024 l 393 1222 l 629 1222 l 629 1024 z "},"ö":{"ha":817,"x_min":57,"x_max":757,"o":"m 757 150 l 757 828 l 757 151 l 757 150 m 521 232 l 521 742 l 467 781 l 347 781 l 293 742 l 293 232 l 349 199 l 465 199 l 521 232 m 757 828 l 757 151 l 522 1 l 293 1 l 292 1 l 57 150 l 57 828 l 293 976 l 521 976 l 757 828 m 332 1024 l 96 1024 l 96 1222 l 332 1222 l 332 1024 m 721 1024 l 485 1024 l 485 1222 l 721 1222 l 721 1024 z "},"ü":{"ha":793,"x_min":43,"x_max":743,"o":"m 279 232 l 335 199 l 451 199 l 507 232 l 507 978 l 743 978 l 743 150 l 508 1 l 278 1 l 43 150 l 43 978 l 279 978 l 279 232 m 321 1024 l 85 1024 l 85 1222 l 321 1222 l 321 1024 m 710 1024 l 474 1024 l 474 1222 l 710 1222 l 710 1024 z "},"ë":{"ha":790,"x_min":44,"x_max":744,"o":"m 744 976 l 744 781 l 281 781 l 281 586 l 513 586 l 513 389 l 281 389 l 281 199 l 744 199 l 744 1 l 44 1 l 44 978 l 744 976 m 319 1024 l 83 1024 l 83 1222 l 319 1222 l 319 1024 m 708 1024 l 472 1024 l 472 1222 l 708 1222 l 708 1024 z "},"ï":{"ha":343,"x_min":-140,"x_max":485,"o":"m 54 978 l 290 978 l 290 1 l 54 1 l 54 978 m 96 1024 l -140 1024 l -140 1222 l 96 1222 l 96 1024 m 485 1024 l 249 1024 l 249 1222 l 485 1222 l 485 1024 z "},"ä":{"ha":644,"x_min":-32,"x_max":668,"o":"m 340 388 l 318 481 l 296 388 l 340 388 m -32 1 l 200 978 l 436 978 l 668 1 l 432 1 l 386 192 l 249 192 l 204 1 l -32 1 m 247 1024 l 11 1024 l 11 1222 l 247 1222 l 247 1024 m 636 1024 l 400 1024 l 400 1222 l 636 1222 l 636 1024 z "},"Å":{"ha":644,"x_min":-32,"x_max":668,"o":"m 340 388 l 318 481 l 296 388 l 340 388 m -32 1 l 200 978 l 436 978 l 668 1 l 432 1 l 386 192 l 249 192 l 204 1 l -32 1 m 321 1196 q 379 1184 351 1196 q 427 1152 407 1172 q 459 1104 447 1132 q 471 1046 471 1076 q 459 987 471 1014 q 427 940 447 960 q 379 908 407 919 q 321 896 351 896 q 263 908 290 896 q 217 940 236 919 q 185 987 197 960 q 174 1046 174 1014 q 185 1104 174 1076 q 216 1152 196 1132 q 263 1184 236 1172 q 321 1196 289 1196 m 322 988 q 363 1004 346 988 q 381 1046 381 1021 q 364 1088 381 1071 q 322 1104 347 1104 q 281 1087 299 1104 q 264 1047 264 1069 q 281 1004 264 1021 q 322 988 299 988 z "},"å":{"ha":644,"x_min":-32,"x_max":668,"o":"m 340 388 l 318 481 l 296 388 l 340 388 m -32 1 l 200 978 l 436 978 l 668 1 l 432 1 l 386 192 l 249 192 l 204 1 l -32 1 m 321 1196 q 379 1184 351 1196 q 427 1152 407 1172 q 459 1104 447 1132 q 471 1046 471 1076 q 459 987 471 1014 q 427 940 447 960 q 379 908 407 919 q 321 896 351 896 q 263 908 290 896 q 217 940 236 919 q 185 987 197 960 q 174 1046 174 1014 q 185 1104 174 1076 q 216 1152 196 1132 q 263 1184 236 1172 q 321 1196 289 1196 m 322 988 q 363 1004 346 988 q 381 1046 381 1021 q 364 1088 381 1071 q 322 1104 347 1104 q 281 1087 299 1104 q 264 1047 264 1069 q 281 1004 264 1021 q 322 988 299 988 z "},"Æ":{"ha":1178,"x_min":-26,"x_max":1135,"o":"m 1135 976 l 1135 781 l 671 781 l 671 586 l 903 586 l 903 389 l 671 389 l 671 199 l 1135 199 l 1135 1 l 435 1 l 435 192 l 297 192 l 208 1 l -26 1 l 431 978 l 1135 976 m 435 388 l 433 481 l 390 388 l 435 388 z "},"æ":{"ha":1178,"x_min":-26,"x_max":1135,"o":"m 1135 976 l 1135 781 l 671 781 l 671 586 l 903 586 l 903 389 l 671 389 l 671 199 l 1135 199 l 1135 1 l 435 1 l 435 192 l 297 192 l 208 1 l -26 1 l 431 978 l 1135 976 m 435 388 l 433 481 l 390 388 l 435 388 z "},"Œ":{"ha":1269,"x_min":57,"x_max":1224,"o":"m 1224 976 l 1224 781 l 760 781 l 760 586 l 992 586 l 992 389 l 760 389 l 760 199 l 1224 199 l 1224 1 l 292 1 l 57 150 l 57 828 l 293 976 l 1224 976 m 521 232 l 521 742 l 467 781 l 347 781 l 293 742 l 293 232 l 349 199 l 465 199 l 521 232 z "},"œ":{"ha":1269,"x_min":57,"x_max":1224,"o":"m 1224 976 l 1224 781 l 760 781 l 760 586 l 992 586 l 992 389 l 760 389 l 760 199 l 1224 199 l 1224 1 l 292 1 l 57 150 l 57 828 l 293 976 l 1224 976 m 521 232 l 521 742 l 467 781 l 347 781 l 293 742 l 293 232 l 349 199 l 465 199 l 521 232 z "},"Þ":{"ha":810,"x_min":56,"x_max":756,"o":"m 519 196 l 292 196 l 292 1 l 56 1 l 56 982 l 292 982 l 292 783 l 519 783 l 756 633 l 756 346 l 519 196 m 465 393 l 519 432 l 519 553 l 464 588 l 292 588 l 292 393 l 465 393 z "},"þ":{"ha":810,"x_min":56,"x_max":756,"o":"m 519 196 l 292 196 l 292 1 l 56 1 l 56 982 l 292 982 l 292 783 l 519 783 l 756 633 l 756 346 l 519 196 m 465 393 l 519 432 l 519 553 l 464 588 l 292 588 l 292 393 l 465 393 z "},"ß":{"ha":792,"x_min":43,"x_max":743,"o":"m 279 978 l 508 978 l 743 828 l 743 572 l 657 488 l 743 404 l 743 151 l 508 1 l 336 1 l 335 197 l 451 197 l 507 232 l 507 393 l 389 393 l 389 590 l 507 590 l 507 742 l 453 781 l 333 781 l 279 742 l 279 3 l 43 3 l 43 828 l 279 978 z "},"ÿ":{"ha":629,"x_min":-40,"x_max":660,"o":"m 424 978 l 660 978 l 428 285 l 428 1 l 192 1 l 192 288 l -40 978 l 196 978 l 310 638 l 424 978 m 240 1024 l 4 1024 l 4 1222 l 240 1222 l 240 1024 m 629 1024 l 393 1024 l 393 1222 l 629 1222 l 629 1024 z "},"ˆ":{"ha":1157,"x_min":242,"x_max":910,"o":"m 536 1321 l 618 1321 l 910 1025 l 732 1028 l 575 1186 l 418 1028 l 242 1025 l 536 1321 z "},"Â":{"ha":644,"x_min":-32,"x_max":668,"o":"m 340 388 l 318 481 l 296 388 l 340 388 m -32 1 l 200 978 l 436 978 l 668 1 l 432 1 l 386 192 l 249 192 l 204 1 l -32 1 m 283 1321 l 365 1321 l 657 1025 l 479 1028 l 322 1186 l 165 1028 l -11 1025 l 283 1321 z "},"â":{"ha":644,"x_min":-32,"x_max":668,"o":"m 340 388 l 318 481 l 296 388 l 340 388 m -32 1 l 200 978 l 436 978 l 668 1 l 432 1 l 386 192 l 249 192 l 204 1 l -32 1 m 283 1321 l 365 1321 l 657 1025 l 479 1028 l 322 1186 l 165 1028 l -11 1025 l 283 1321 z "},"Ê":{"ha":790,"x_min":44,"x_max":744,"o":"m 744 976 l 744 781 l 281 781 l 281 586 l 513 586 l 513 389 l 281 389 l 281 199 l 744 199 l 744 1 l 44 1 l 44 978 l 744 976 m 356 1321 l 438 1321 l 729 1025 l 551 1028 l 394 1186 l 238 1028 l 61 1025 l 356 1321 z "},"ê":{"ha":790,"x_min":44,"x_max":744,"o":"m 744 976 l 744 781 l 281 781 l 281 586 l 513 586 l 513 389 l 281 389 l 281 199 l 744 199 l 744 1 l 44 1 l 44 978 l 744 976 m 356 1321 l 438 1321 l 729 1025 l 551 1028 l 394 1186 l 238 1028 l 61 1025 l 356 1321 z "},"Î":{"ha":343,"x_min":-162,"x_max":506,"o":"m 54 978 l 290 978 l 290 1 l 54 1 l 54 978 m 132 1321 l 214 1321 l 506 1025 l 328 1028 l 171 1186 l 14 1028 l -162 1025 l 132 1321 z "},"î":{"ha":343,"x_min":-162,"x_max":506,"o":"m 54 978 l 290 978 l 290 1 l 54 1 l 54 978 m 132 1321 l 214 1321 l 506 1025 l 328 1028 l 171 1186 l 14 1028 l -162 1025 l 132 1321 z "},"Ð":{"ha":879,"x_min":0,"x_max":818,"o":"m 0 586 l 118 586 l 118 978 l 582 978 l 818 828 l 818 151 l 583 1 l 118 1 l 118 389 l 0 389 l 0 586 m 582 232 l 582 742 l 528 781 l 354 781 l 354 586 l 475 586 l 475 389 l 354 389 l 354 199 l 526 199 l 582 232 z "},"ô":{"ha":817,"x_min":57,"x_max":757,"o":"m 757 150 l 757 828 l 757 151 l 757 150 m 521 232 l 521 742 l 467 781 l 347 781 l 293 742 l 293 232 l 349 199 l 465 199 l 521 232 m 757 828 l 757 151 l 522 1 l 293 1 l 292 1 l 57 150 l 57 828 l 293 976 l 521 976 l 757 828 m 369 1321 l 451 1321 l 743 1025 l 565 1028 l 408 1186 l 251 1028 l 75 1025 l 369 1321 z "},"Û":{"ha":793,"x_min":43,"x_max":743,"o":"m 279 232 l 335 199 l 451 199 l 507 232 l 507 978 l 743 978 l 743 150 l 508 1 l 278 1 l 43 150 l 43 978 l 279 978 l 279 232 m 357 1321 l 439 1321 l 731 1025 l 553 1028 l 396 1186 l 239 1028 l 63 1025 l 357 1321 z "},"û":{"ha":793,"x_min":43,"x_max":743,"o":"m 279 232 l 335 199 l 451 199 l 507 232 l 507 978 l 743 978 l 743 150 l 508 1 l 278 1 l 43 150 l 43 978 l 279 978 l 279 232 m 357 1321 l 439 1321 l 731 1025 l 553 1028 l 396 1186 l 239 1028 l 63 1025 l 357 1321 z "},"˜":{"ha":1157,"x_min":364,"x_max":769,"o":"m 592 1206 q 637 1166 610 1167 q 682 1206 664 1165 q 701 1288 700 1243 l 769 1288 q 760 1191 769 1239 q 732 1106 751 1143 q 687 1040 711 1061 q 637 1018 663 1018 q 587 1040 611 1018 q 543 1106 563 1061 q 498 1145 525 1144 q 453 1106 471 1146 q 440 1064 444 1088 q 435 1015 436 1040 l 364 1015 q 374 1117 365 1068 q 403 1206 383 1167 q 448 1271 424 1249 q 498 1293 472 1293 q 548 1271 524 1293 q 592 1206 572 1249 z "},"Ã":{"ha":644,"x_min":-32,"x_max":668,"o":"m 340 388 l 318 481 l 296 388 l 340 388 m -32 1 l 200 978 l 436 978 l 668 1 l 432 1 l 386 192 l 249 192 l 204 1 l -32 1 m 349 1206 q 394 1166 367 1167 q 439 1206 421 1165 q 458 1288 457 1243 l 526 1288 q 517 1191 526 1239 q 489 1106 508 1143 q 444 1040 468 1061 q 394 1018 419 1018 q 344 1040 368 1018 q 300 1106 319 1061 q 255 1145 282 1144 q 210 1106 228 1146 q 197 1064 201 1088 q 192 1015 193 1040 l 121 1015 q 131 1117 122 1068 q 160 1206 140 1167 q 205 1271 181 1249 q 255 1293 229 1293 q 305 1271 281 1293 q 349 1206 329 1249 z "},"Ñ":{"ha":785,"x_min":43,"x_max":743,"o":"m 507 978 l 743 978 l 743 1 l 507 1 l 279 493 l 279 1 l 43 1 l 43 978 l 279 978 l 507 493 l 507 978 m 418 1206 q 463 1166 436 1167 q 508 1206 490 1165 q 528 1288 526 1243 l 596 1288 q 587 1191 596 1239 q 558 1106 578 1143 q 513 1040 538 1061 q 463 1018 489 1018 q 413 1040 438 1018 q 369 1106 389 1061 q 324 1145 351 1144 q 279 1106 297 1146 q 267 1064 271 1088 q 261 1015 263 1040 l 190 1015 q 201 1117 192 1068 q 229 1206 210 1167 q 274 1271 250 1249 q 324 1293 299 1293 q 374 1271 350 1293 q 418 1206 399 1249 z "},"ñ":{"ha":785,"x_min":43,"x_max":743,"o":"m 507 978 l 743 978 l 743 1 l 507 1 l 279 493 l 279 1 l 43 1 l 43 978 l 279 978 l 507 493 l 507 978 m 418 1206 q 463 1166 436 1167 q 508 1206 490 1165 q 528 1288 526 1243 l 596 1288 q 587 1191 596 1239 q 558 1106 578 1143 q 513 1040 538 1061 q 463 1018 489 1018 q 413 1040 438 1018 q 369 1106 389 1061 q 324 1145 351 1144 q 279 1106 297 1146 q 267 1064 271 1088 q 261 1015 263 1040 l 190 1015 q 201 1117 192 1068 q 229 1206 210 1167 q 274 1271 250 1249 q 324 1293 299 1293 q 374 1271 350 1293 q 418 1206 399 1249 z "},"ã":{"ha":644,"x_min":-32,"x_max":668,"o":"m 340 388 l 318 481 l 296 388 l 340 388 m -32 1 l 200 978 l 436 978 l 668 1 l 432 1 l 386 192 l 249 192 l 204 1 l -32 1 m 349 1206 q 394 1166 367 1167 q 439 1206 421 1165 q 458 1288 457 1243 l 526 1288 q 517 1191 526 1239 q 489 1106 508 1143 q 444 1040 468 1061 q 394 1018 419 1018 q 344 1040 368 1018 q 300 1106 319 1061 q 255 1145 282 1144 q 210 1106 228 1146 q 197 1064 201 1088 q 192 1015 193 1040 l 121 1015 q 131 1117 122 1068 q 160 1206 140 1167 q 205 1271 181 1249 q 255 1293 229 1293 q 305 1271 281 1293 q 349 1206 329 1249 z "},"õ":{"ha":817,"x_min":57,"x_max":757,"o":"m 757 150 l 757 828 l 757 151 l 757 150 m 521 232 l 521 742 l 467 781 l 347 781 l 293 742 l 293 232 l 349 199 l 465 199 l 521 232 m 757 828 l 757 151 l 522 1 l 293 1 l 292 1 l 57 150 l 57 828 l 293 976 l 521 976 l 757 828 m 433 1206 q 478 1166 451 1167 q 524 1206 506 1165 q 543 1288 542 1243 l 611 1288 q 602 1191 611 1239 q 574 1106 593 1143 q 528 1040 553 1061 q 478 1018 504 1018 q 428 1040 453 1018 q 385 1106 404 1061 q 340 1145 367 1144 q 294 1106 313 1146 q 282 1064 286 1088 q 276 1015 278 1040 l 206 1015 q 216 1117 207 1068 q 244 1206 225 1167 q 290 1271 265 1249 q 340 1293 314 1293 q 390 1271 365 1293 q 433 1206 414 1249 z "},"@":{"ha":779,"x_min":43,"x_max":743,"o":"m 743 149 l 507 0 l 279 0 l 43 143 l 43 826 l 278 975 l 508 975 l 743 826 l 743 572 l 743 415 l 657 322 l 510 322 l 394 375 l 394 606 l 507 658 l 507 744 l 451 778 l 335 778 l 279 744 l 279 235 l 333 196 l 453 196 l 507 235 l 743 235 l 743 149 z "},"&":{"ha":786,"x_min":42,"x_max":789,"o":"m 278 3 l 278 1 l 276 1 l 42 151 l 42 393 l 196 490 l 111 589 l 111 828 l 276 978 l 507 978 l 672 828 l 672 589 l 492 467 l 610 376 l 676 451 l 789 353 l 711 274 l 789 194 l 706 78 l 635 144 l 506 1 l 506 3 l 278 3 m 367 365 l 292 365 l 236 331 l 236 210 l 290 171 l 424 171 l 506 261 l 367 365 m 451 617 l 506 656 l 506 775 l 450 810 l 333 810 l 278 775 l 278 656 l 332 617 l 451 617 z "},"O":{"ha":817,"x_min":57,"x_max":757,"o":"m 757 150 l 757 828 l 757 151 l 757 150 m 521 232 l 521 742 l 467 781 l 347 781 l 293 742 l 293 232 l 349 199 l 465 199 l 521 232 m 757 828 l 757 151 l 522 1 l 293 1 l 292 1 l 57 150 l 57 828 l 293 976 l 521 976 l 757 828 z "},"o":{"ha":817,"x_min":57,"x_max":757,"o":"m 757 150 l 757 828 l 757 151 l 757 150 m 521 232 l 521 742 l 467 781 l 347 781 l 293 742 l 293 232 l 349 199 l 465 199 l 521 232 m 757 828 l 757 151 l 522 1 l 293 1 l 292 1 l 57 150 l 57 828 l 293 976 l 521 976 l 757 828 z "},"q":{"ha":831,"x_min":57,"x_max":828,"o":"m 521 439 l 521 742 l 467 781 l 347 781 l 293 742 l 293 232 l 349 199 l 440 199 l 328 292 l 479 474 l 521 439 m 757 240 l 757 828 l 757 240 m 757 828 l 757 240 l 828 181 l 675 0 l 608 57 l 522 1 l 522 1 l 521 1 l 293 1 l 292 1 l 292 1 l 57 150 l 57 828 l 292 978 l 521 978 l 757 828 z "},"c":{"ha":788,"x_min":43,"x_max":743,"o":"m 507 978 l 743 828 l 743 588 l 507 588 l 507 742 l 453 781 l 333 781 l 279 742 l 279 232 l 335 199 l 451 199 l 507 232 l 507 390 l 743 390 l 743 150 l 508 1 l 508 1 l 507 1 l 279 1 l 278 1 l 278 1 l 43 150 l 43 828 l 278 978 l 507 978 l 507 978 z "},"ø":{"ha":817,"x_min":57,"x_max":757,"o":"m 428 781 l 347 781 l 293 742 l 293 493 l 428 781 m 521 232 l 521 493 l 383 199 l 465 199 l 521 232 m 757 150 l 757 828 l 757 151 l 757 150 m 521 978 l 757 828 l 757 151 l 522 1 l 522 1 l 521 1 l 293 1 l 292 1 l 292 1 l 57 150 l 57 828 l 292 978 l 521 978 z "},"Ò":{"ha":817,"x_min":57,"x_max":757,"o":"m 757 150 l 757 828 l 757 151 l 757 150 m 521 232 l 521 742 l 467 781 l 347 781 l 293 742 l 293 232 l 349 199 l 465 199 l 521 232 m 757 828 l 757 151 l 522 1 l 293 1 l 292 1 l 57 150 l 57 828 l 293 976 l 521 976 l 757 828 m 593 1119 l 446 972 l 224 1194 l 371 1342 l 593 1119 z "},"Ó":{"ha":817,"x_min":57,"x_max":757,"o":"m 757 150 l 757 828 l 757 151 l 757 150 m 521 232 l 521 742 l 467 781 l 347 781 l 293 742 l 293 232 l 349 199 l 465 199 l 521 232 m 757 828 l 757 151 l 522 1 l 293 1 l 292 1 l 57 150 l 57 828 l 293 976 l 521 976 l 757 828 m 446 1342 l 593 1194 l 371 972 l 224 1119 l 446 1342 z "},"Ô":{"ha":817,"x_min":57,"x_max":757,"o":"m 757 150 l 757 828 l 757 151 l 757 150 m 521 232 l 521 742 l 467 781 l 347 781 l 293 742 l 293 232 l 349 199 l 465 199 l 521 232 m 757 828 l 757 151 l 522 1 l 293 1 l 292 1 l 57 150 l 57 828 l 293 976 l 521 976 l 757 828 m 369 1321 l 451 1321 l 743 1025 l 565 1028 l 408 1186 l 251 1028 l 75 1025 l 369 1321 z "},"Õ":{"ha":817,"x_min":57,"x_max":757,"o":"m 757 150 l 757 828 l 757 151 l 757 150 m 521 232 l 521 742 l 467 781 l 347 781 l 293 742 l 293 232 l 349 199 l 465 199 l 521 232 m 757 828 l 757 151 l 522 1 l 293 1 l 292 1 l 57 150 l 57 828 l 293 976 l 521 976 l 757 828 m 433 1206 q 478 1166 451 1167 q 524 1206 506 1165 q 543 1288 542 1243 l 611 1288 q 602 1191 611 1239 q 574 1106 593 1143 q 528 1040 553 1061 q 478 1018 504 1018 q 428 1040 453 1018 q 385 1106 404 1061 q 340 1145 367 1144 q 294 1106 313 1146 q 282 1064 286 1088 q 276 1015 278 1040 l 206 1015 q 216 1117 207 1068 q 244 1206 225 1167 q 290 1271 265 1249 q 340 1293 314 1293 q 390 1271 365 1293 q 433 1206 414 1249 z "},"Ö":{"ha":817,"x_min":57,"x_max":757,"o":"m 757 150 l 757 828 l 757 151 l 757 150 m 521 232 l 521 742 l 467 781 l 347 781 l 293 742 l 293 232 l 349 199 l 465 199 l 521 232 m 757 828 l 757 151 l 522 1 l 293 1 l 292 1 l 57 150 l 57 828 l 293 976 l 521 976 l 757 828 m 332 1024 l 96 1024 l 96 1222 l 332 1222 l 332 1024 m 721 1024 l 485 1024 l 485 1222 l 721 1222 l 721 1024 z "},"R":{"ha":785,"x_min":54,"x_max":793,"o":"m 367 390 l 290 390 l 290 1 l 54 1 l 54 978 l 518 978 l 754 828 l 754 553 l 585 438 l 793 1 l 557 1 l 367 390 m 290 781 l 290 586 l 463 586 l 518 621 l 518 742 l 464 781 l 290 781 z "},"ð":{"ha":879,"x_min":0,"x_max":818,"o":"m 0 586 l 118 586 l 118 978 l 582 978 l 818 828 l 818 151 l 583 1 l 118 1 l 118 389 l 0 389 l 0 586 m 582 232 l 582 742 l 528 781 l 354 781 l 354 586 l 475 586 l 475 389 l 354 389 l 354 199 l 526 199 l 582 232 z "},"b":{"ha":800,"x_min":46,"x_max":746,"o":"m 282 390 l 282 197 l 454 197 l 510 232 l 510 351 l 456 390 l 282 390 m 282 781 l 282 586 l 454 586 l 510 621 l 510 742 l 456 781 l 282 781 m 46 978 l 510 978 l 746 828 l 746 586 l 590 489 l 746 390 l 746 151 l 511 1 l 511 1 l 510 1 l 46 1 l 46 978 z "}}}
